<svg width="42" height="32" viewBox="0 0 42 32" fill="none" xmlns="http://www.w3.org/2000/svg">
<path d="M2.71429 5.24933C3.32172 4.9834 3.96796 4.96094 4.42857 5.03845C14.7143 5.03845 35.8571 5.03845 38.1429 5.03845C38.5614 5.03845 38.9225 5.11583 39.2331 5.24933M2.71429 5.24933C1.81456 5.64323 1 6.57132 1 8.49999C1 11.7308 1 22.9231 1 28.1154C1 29.0769 1.68571 31 4.42857 31C7.17143 31 11.2857 31 15.2857 31C19.2857 31 17.5714 24.0769 21 24.0769C24.4286 24.0769 23.2857 31 25.5714 31C27.8571 31 34.5238 31 38.1429 31C39.0952 30.8077 41 29.9615 41 28.1154C41 26.2692 41 14.2692 41 8.49999C41 7.55743 40.6187 5.8449 39.2331 5.24933M2.71429 5.24933C3.09524 3.83289 4.42857 1 6.71429 1C9 1 26.7143 1 35.2857 1C36.3935 1.33289 38.7338 2.64881 39.2331 5.24933" stroke="#FFBD5F" stroke-width="2"/>
<path d="M18.1428 28.1152H23.8571" stroke="#FFC563" stroke-width="2"/>
<path d="M17.7142 17.154C17.7142 19.797 15.5946 21.9232 12.9999 21.9232C10.4053 21.9232 8.28564 19.797 8.28564 17.154C8.28564 14.511 10.4053 12.3848 12.9999 12.3848C15.5946 12.3848 17.7142 14.511 17.7142 17.154Z" stroke="#FFBD5F" stroke-width="2"/>
<path d="M33.7142 17.154C33.7142 19.797 31.5946 21.9232 28.9999 21.9232C26.4053 21.9232 24.2856 19.797 24.2856 17.154C24.2856 14.511 26.4053 12.3848 28.9999 12.3848C31.5946 12.3848 33.7142 14.511 33.7142 17.154Z" stroke="#FFBD5F" stroke-width="2"/>
</svg>
