<svg width="42" height="42" viewBox="0 0 42 42" fill="none" xmlns="http://www.w3.org/2000/svg">
<path d="M20.994 18.1951C21.8069 18.1951 23.872 17.9495 25.628 16.9669C27.8231 15.7387 30.6686 14.6611 33.2702 16.9669C36.5037 19.8327 45.7904 35.7996 37.9043 40.6306C36.6618 41.3918 33.2702 41.2408 28.4735 37.601C22.5387 33.0975 22.4573 33.4251 20.5874 33.4251C18.3096 33.4251 17.1729 34.7352 13.2705 37.601C9.36809 40.4669 6.03479 41.6951 3.35191 40.4669C-0.225284 38.8293 -0.550402 27.6115 8.31119 17.5401C9.89619 15.7387 12.4575 14.8052 16.0347 16.9669C17.0103 17.3763 19.368 18.1951 20.994 18.1951ZM20.994 18.1951C20.8584 16.3118 21.4004 12.6272 24.8963 10.007C26.9288 8.48359 27.5792 8.28745 31.8881 6.64982C33.1889 6.15545 36.197 5.66725 36.8474 1" stroke="#FFC563" stroke-width="2"/>
<path d="M11 23V31" stroke="#FFC563" stroke-width="2.5"/>
<path d="M7 27L15 27" stroke="#FFC563" stroke-width="2.5"/>
<circle cx="29.5" cy="23.5" r="1.5" fill="#FFC563"/>
<circle cx="32.5" cy="26.5" r="1.5" fill="#FFC563"/>
<circle cx="26.5" cy="26.5" r="1.5" fill="#FFC563"/>
<circle cx="29.5" cy="29.5" r="1.5" fill="#FFC563"/>
</svg>
